# xmcd
#
# Track frame offsets:
#	150
#	19602
#	39240
#	57778
#	77315
#	97625
#	117548
#	139373
#	161088
#	182334
#	202724
#	223360
#	242706
#	263773
#	283578
#	305919
#	321086
#
# Disc length: 4622 seconds
#
# Revision: 0
# Processed by: cddbd v1.4PL0 Copyright (c) Steve Scherf et al.
# Submitted via: audiograbber 1.81.02
#
DISCID=e4120c11
DTITLE=Whitney Houston - Platinum Collection 2000
DYEAR=2000
DGENRE=Blues
TTITLE0=I Learned From The Best
TTITLE1=Could I Have This Kiss Forever (With Enrique Iglesias)
TTITLE2=All The Man That I Need
TTITLE3=My Love Is Your Love
TTITLE4=I Will Always Love You
TTITLE5=All At Once
TTITLE6=It's Not Right But It's Okay
TTITLE7=I Have Nothing
TTITLE8=One Moment In Time
TTITLE9=When You Believe
TTITLE10=Where Do Broken Hearts Go
TTITLE11=You Are Still My Man
TTITLE12=Heartbreak Hotel
TTITLE13=Count On Me
TTITLE14=Greatest Love Of All
TTITLE15=Exhale (Shoop Shoop)
TTITLE16=Miracle
EXTD=send by Andre T. Zavarzin
EXTT0=
EXTT1=
EXTT2=
EXTT3=
EXTT4=
EXTT5=
EXTT6=
EXTT7=
EXTT8=
EXTT9=
EXTT10=
EXTT11=
EXTT12=
EXTT13=
EXTT14=
EXTT15=
EXTT16=
PLAYORDER=
